<svg xmlns="http://www.w3.org/2000/svg" width="960" height="600" viewBox="0 0 960 600">
<rect width="100%" height="100%" fill="white"/>
<text x="480.0" y="34.0" font-size="21" text-anchor="middle" font-weight="bold" fill="#222">Q1 split-K attention latency on NVIDIA A40</text>
<text x="480.0" y="58.0" font-size="12" text-anchor="middle" font-weight="normal" fill="#555">point = median of independent repetition medians; whisker = range</text>
<line x1="90" y1="500.0" x2="925" y2="500.0" stroke="#ddd" stroke-width="1"/>
<text x="78.0" y="505.0" font-size="12" text-anchor="end" font-weight="normal" fill="#222">0</text>
<line x1="90" y1="415.0" x2="925" y2="415.0" stroke="#ddd" stroke-width="1"/>
<text x="78.0" y="420.0" font-size="12" text-anchor="end" font-weight="normal" fill="#222">100</text>
<line x1="90" y1="330.0" x2="925" y2="330.0" stroke="#ddd" stroke-width="1"/>
<text x="78.0" y="335.0" font-size="12" text-anchor="end" font-weight="normal" fill="#222">200</text>
<line x1="90" y1="245.0" x2="925" y2="245.0" stroke="#ddd" stroke-width="1"/>
<text x="78.0" y="250.0" font-size="12" text-anchor="end" font-weight="normal" fill="#222">300</text>
<line x1="90" y1="160.0" x2="925" y2="160.0" stroke="#ddd" stroke-width="1"/>
<text x="78.0" y="165.0" font-size="12" text-anchor="end" font-weight="normal" fill="#222">400</text>
<line x1="90" y1="75.0" x2="925" y2="75.0" stroke="#ddd" stroke-width="1"/>
<text x="78.0" y="80.0" font-size="12" text-anchor="end" font-weight="normal" fill="#222">500</text>
<line x1="90" y1="75" x2="90" y2="500" stroke="#333"/>
<line x1="90" y1="500" x2="925" y2="500" stroke="#333"/>
<text transform="rotate(-90 24 287.5)" x="24.0" y="287.5" font-size="14" text-anchor="middle" font-weight="normal" fill="#222">Latency (us)</text>
<text x="507.5" y="555.0" font-size="14" text-anchor="middle" font-weight="normal" fill="#222">KV sequence length</text>
<line x1="90.0" y1="500" x2="90.0" y2="506" stroke="#333"/>
<text x="90.0" y="524.0" font-size="12" text-anchor="middle" font-weight="normal" fill="#222">4K</text>
<line x1="507.5" y1="500" x2="507.5" y2="506" stroke="#333"/>
<text x="507.5" y="524.0" font-size="12" text-anchor="middle" font-weight="normal" fill="#222">16K</text>
<line x1="925.0" y1="500" x2="925.0" y2="506" stroke="#333"/>
<text x="925.0" y="524.0" font-size="12" text-anchor="middle" font-weight="normal" fill="#222">64K</text>
<path d="M 84.0 458.3 L 501.5 386.3 L 919.0 104.0" fill="none" stroke="#4c78a8" stroke-width="2.5"/>
<line x1="84.0" y1="457.7" x2="84.0" y2="458.6" stroke="#4c78a8" stroke-width="1.5"/>
<line x1="80.0" y1="457.7" x2="88.0" y2="457.7" stroke="#4c78a8"/>
<line x1="80.0" y1="458.6" x2="88.0" y2="458.6" stroke="#4c78a8"/>
<circle cx="84.0" cy="458.3" r="5" fill="#4c78a8" stroke="white" stroke-width="1"/>
<line x1="501.5" y1="386.3" x2="501.5" y2="386.4" stroke="#4c78a8" stroke-width="1.5"/>
<line x1="497.5" y1="386.3" x2="505.5" y2="386.3" stroke="#4c78a8"/>
<line x1="497.5" y1="386.4" x2="505.5" y2="386.4" stroke="#4c78a8"/>
<circle cx="501.5" cy="386.3" r="5" fill="#4c78a8" stroke="white" stroke-width="1"/>
<line x1="919.0" y1="103.9" x2="919.0" y2="104.1" stroke="#4c78a8" stroke-width="1.5"/>
<line x1="915.0" y1="103.9" x2="923.0" y2="103.9" stroke="#4c78a8"/>
<line x1="915.0" y1="104.1" x2="923.0" y2="104.1" stroke="#4c78a8"/>
<circle cx="919.0" cy="104.0" r="5" fill="#4c78a8" stroke="white" stroke-width="1"/>
<path d="M 90.0 456.9 L 507.5 399.2 L 925.0 154.4" fill="none" stroke="#e45756" stroke-width="2.5"/>
<line x1="90.0" y1="456.5" x2="90.0" y2="457.3" stroke="#e45756" stroke-width="1.5"/>
<line x1="86.0" y1="456.5" x2="94.0" y2="456.5" stroke="#e45756"/>
<line x1="86.0" y1="457.3" x2="94.0" y2="457.3" stroke="#e45756"/>
<circle cx="90.0" cy="456.9" r="5" fill="#e45756" stroke="white" stroke-width="1"/>
<line x1="507.5" y1="399.1" x2="507.5" y2="399.3" stroke="#e45756" stroke-width="1.5"/>
<line x1="503.5" y1="399.1" x2="511.5" y2="399.1" stroke="#e45756"/>
<line x1="503.5" y1="399.3" x2="511.5" y2="399.3" stroke="#e45756"/>
<circle cx="507.5" cy="399.2" r="5" fill="#e45756" stroke="white" stroke-width="1"/>
<line x1="925.0" y1="153.9" x2="925.0" y2="154.7" stroke="#e45756" stroke-width="1.5"/>
<line x1="921.0" y1="153.9" x2="929.0" y2="153.9" stroke="#e45756"/>
<line x1="921.0" y1="154.7" x2="929.0" y2="154.7" stroke="#e45756"/>
<circle cx="925.0" cy="154.4" r="5" fill="#e45756" stroke="white" stroke-width="1"/>
<path d="M 96.0 456.9 L 513.5 398.1 L 931.0 150.8" fill="none" stroke="#54a24b" stroke-width="2.5"/>
<line x1="96.0" y1="456.5" x2="96.0" y2="457.2" stroke="#54a24b" stroke-width="1.5"/>
<line x1="92.0" y1="456.5" x2="100.0" y2="456.5" stroke="#54a24b"/>
<line x1="92.0" y1="457.2" x2="100.0" y2="457.2" stroke="#54a24b"/>
<circle cx="96.0" cy="456.9" r="5" fill="#54a24b" stroke="white" stroke-width="1"/>
<line x1="513.5" y1="398.0" x2="513.5" y2="398.3" stroke="#54a24b" stroke-width="1.5"/>
<line x1="509.5" y1="398.0" x2="517.5" y2="398.0" stroke="#54a24b"/>
<line x1="509.5" y1="398.3" x2="517.5" y2="398.3" stroke="#54a24b"/>
<circle cx="513.5" cy="398.1" r="5" fill="#54a24b" stroke="white" stroke-width="1"/>
<line x1="931.0" y1="150.3" x2="931.0" y2="151.8" stroke="#54a24b" stroke-width="1.5"/>
<line x1="927.0" y1="150.3" x2="935.0" y2="150.3" stroke="#54a24b"/>
<line x1="927.0" y1="151.8" x2="935.0" y2="151.8" stroke="#54a24b"/>
<circle cx="931.0" cy="150.8" r="5" fill="#54a24b" stroke="white" stroke-width="1"/>
<line x1="585" y1="100" x2="613" y2="100" stroke="#4c78a8" stroke-width="3"/>
<text x="621.0" y="105.0" font-size="12" text-anchor="start" font-weight="normal" fill="#222">Raw FA2</text>
<line x1="585" y1="125" x2="613" y2="125" stroke="#e45756" stroke-width="3"/>
<text x="621.0" y="130.0" font-size="12" text-anchor="start" font-weight="normal" fill="#222">ByteV2 V6-256</text>
<line x1="585" y1="150" x2="613" y2="150" stroke="#54a24b" stroke-width="3"/>
<text x="621.0" y="155.0" font-size="12" text-anchor="start" font-weight="normal" fill="#222">SplitZip V5 envelope</text>
</svg>
